<svg viewBox="0 0 170 30" fill="none" xmlns="http://www.w3.org/2000/svg">
    <path
        d="M38.5492 11.393C38.4571 12.6911 37.9903 13.7091 37.1446 14.4556C36.3009 15.1999 35.1875 15.572 33.8064 15.572C32.2946 15.572 31.1063 15.051 30.239 14.009C29.374 12.9691 28.9393 11.5396 28.9393 9.72264V8.9849C28.9393 7.82684 29.1385 6.8045 29.5389 5.9179C29.9371 5.03567 30.5088 4.35922 31.2497 3.88637C31.9927 3.4157 32.8556 3.17708 33.8363 3.17708C35.1982 3.17708 36.2945 3.54924 37.1253 4.29355C37.9561 5.04005 38.4379 6.08427 38.5663 7.43279H36.136C36.0782 6.65345 35.8662 6.08646 35.5001 5.7362C35.1382 5.38594 34.5815 5.2108 33.8363 5.2108C33.0269 5.2108 32.421 5.50634 32.0206 6.10179C31.618 6.69505 31.4124 7.61668 31.4017 8.86449V9.77518C31.4017 11.0777 31.5923 12.03 31.9799 12.632C32.3674 13.234 32.9756 13.5361 33.8064 13.5361C34.5558 13.5361 35.1168 13.361 35.4872 13.0129C35.8555 12.6627 36.0675 12.1219 36.1232 11.3908H38.5492V11.393ZM45.2427 14.495C44.6646 15.213 43.8659 15.572 42.8467 15.572C41.9067 15.572 41.1915 15.294 40.6969 14.7445C40.2022 14.1929 39.9517 13.3851 39.9389 12.319V6.44986H42.2793V12.2402C42.2793 13.1727 42.6947 13.639 43.5255 13.639C44.3177 13.639 44.8637 13.3566 45.1614 12.794V6.44986H47.5082V15.4035H45.3048L45.2406 14.4972L45.2427 14.495ZM54.0154 12.9297C54.0154 12.6386 53.8719 12.4065 53.5893 12.2402C53.3045 12.0694 52.8506 11.9205 52.2232 11.787C50.1398 11.3404 49.097 10.4341 49.097 9.07246C49.097 8.27561 49.4203 7.61011 50.0648 7.08034C50.7115 6.54618 51.5551 6.2813 52.5979 6.2813C53.7092 6.2813 54.6 6.55056 55.2659 7.08472C55.9318 7.62106 56.2658 8.31721 56.2658 9.17316H53.9255C53.9255 8.83166 53.8184 8.55145 53.6021 8.32815C53.3859 8.10486 53.0497 7.9954 52.5893 7.9954C52.1953 7.9954 51.8913 8.08516 51.675 8.26686C51.4588 8.45074 51.3517 8.68279 51.3517 8.96082C51.3517 9.22351 51.4737 9.43805 51.72 9.60005C51.9662 9.76423 52.3816 9.90434 52.964 10.0204C53.5465 10.1386 54.0368 10.2743 54.4372 10.421C55.6727 10.8851 56.2915 11.6885 56.2915 12.8312C56.2915 13.6478 55.9489 14.3089 55.2637 14.8146C54.5785 15.3203 53.6899 15.572 52.6065 15.572C51.872 15.572 51.2189 15.4385 50.6494 15.1714C50.0798 14.9022 49.6344 14.5366 49.3089 14.0703C48.9856 13.604 48.825 13.1005 48.825 12.5576H51.0412C51.0626 12.9845 51.2189 13.3085 51.5016 13.5383C51.7885 13.7638 52.1739 13.8776 52.6514 13.8776C53.0989 13.8776 53.4394 13.7901 53.6685 13.6171C53.8976 13.442 54.0133 13.2121 54.0133 12.9297H54.0154ZM60.5997 4.24539V6.44986H62.0986V8.21432H60.5997V12.6802C60.5997 13.0107 60.664 13.2472 60.7881 13.3917C60.9123 13.5361 61.15 13.6062 61.5012 13.6062C61.7581 13.6062 61.9872 13.5865 62.1885 13.5493V15.3575C61.7303 15.502 61.2571 15.572 60.771 15.572C59.1287 15.572 58.2915 14.727 58.2615 13.0348V8.21432H56.981V6.44986H58.2615V4.24539H60.5997ZM62.8459 10.8435C62.8459 9.9525 63.015 9.16222 63.3491 8.46607C63.6831 7.77211 64.1649 7.23139 64.7944 6.85048C65.4218 6.46737 66.152 6.27911 66.9828 6.27911C68.1669 6.27911 69.1304 6.64907 69.8799 7.38901C70.625 8.12675 71.0426 9.13157 71.1303 10.4013L71.1475 11.0142C71.1475 12.3912 70.7706 13.4924 70.0212 14.322C69.2696 15.1539 68.2632 15.5699 66.9999 15.5699C65.7366 15.5699 64.728 15.1539 63.9765 14.3264C63.2227 13.4989 62.8459 12.3737 62.8459 10.9486V10.8413V10.8435ZM65.1863 11.012C65.1863 11.8636 65.3404 12.5138 65.6552 12.9626C65.9678 13.4114 66.4153 13.639 66.9999 13.639C67.5673 13.639 68.0084 13.4157 68.3275 12.9713C68.6486 12.5269 68.805 11.8155 68.805 10.8391C68.805 10.005 68.6465 9.35924 68.3275 8.89952C68.0106 8.44199 67.5609 8.21213 66.9828 8.21213C66.411 8.21213 65.9678 8.4398 65.6552 8.89514C65.3404 9.35048 65.1863 10.0554 65.1863 11.012ZM74.7897 6.44767L74.8625 7.44592C75.4835 6.66878 76.325 6.27911 77.3828 6.27911C78.5112 6.27911 79.2842 6.73445 79.7039 7.64295C80.3206 6.73445 81.1963 6.27911 82.3376 6.27911C83.2862 6.27911 83.9928 6.56151 84.4574 7.12631C84.9221 7.69111 85.1533 8.54488 85.1533 9.68105V15.4013H82.8044V9.67886C82.8044 9.17097 82.708 8.80101 82.5132 8.56458C82.3205 8.33034 81.9779 8.21213 81.4854 8.21213C80.7831 8.21213 80.297 8.55363 80.0251 9.24103L80.0336 15.4013H77.6954V9.68761C77.6954 9.16879 77.5969 8.79225 77.3935 8.5602C77.1943 8.32815 76.8539 8.21213 76.3742 8.21213C75.7105 8.21213 75.2308 8.49453 74.9353 9.05714V15.4013H72.5949V6.44767H74.7897ZM90.9861 15.5699C89.7013 15.5699 88.6543 15.1649 87.847 14.3593C87.0398 13.5537 86.6351 12.4788 86.6351 11.1368V10.9048C86.6351 10.0072 86.8064 9.20162 87.1468 8.49234C87.4873 7.78305 87.9669 7.23577 88.5922 6.85266C89.2174 6.46737 89.9262 6.27473 90.7248 6.27473C91.9239 6.27473 92.8661 6.66221 93.5556 7.43279C94.2429 8.20775 94.5855 9.30232 94.5855 10.7231V11.7016H89.0076C89.0825 12.2861 89.3116 12.7524 89.6906 13.1071C90.0718 13.4595 90.5535 13.6346 91.136 13.6346C92.0396 13.6346 92.7419 13.3019 93.2515 12.6364L94.4014 13.9521C94.0502 14.4578 93.5748 14.8562 92.9753 15.1386C92.3779 15.4232 91.712 15.5655 90.9861 15.5655V15.5699ZM90.7184 8.21213C90.2538 8.21213 89.8791 8.37194 89.5878 8.69593C89.3009 9.01773 89.1146 9.47964 89.0354 10.0773H92.2879V9.88464C92.2772 9.35267 92.1381 8.94111 91.8683 8.64996C91.5985 8.3588 91.2152 8.21213 90.7184 8.21213ZM100.838 8.68279C100.521 8.6412 100.241 8.61712 99.9986 8.61712C99.1121 8.61712 98.5318 8.92141 98.2577 9.53656V15.4013H95.9174V6.44767H98.1293L98.1935 7.50941C98.6646 6.68629 99.3155 6.27692 100.144 6.27692C100.403 6.27692 100.647 6.31413 100.874 6.38419L100.84 8.68061L100.838 8.68279ZM102.671 7.04093L101.57 6.38857C102.035 5.64207 102.275 4.87367 102.29 4.08339V2.68452H104.153V3.96737C104.153 4.46211 104.018 4.99846 103.748 5.57858C103.476 6.1587 103.118 6.64688 102.669 7.04312L102.671 7.04093ZM108.902 12.9276C108.902 12.6364 108.758 12.4043 108.476 12.238C108.191 12.0672 107.737 11.9184 107.11 11.7848C105.026 11.3382 103.983 10.4319 103.983 9.07027C103.983 8.27342 104.307 7.60792 104.951 7.07815C105.598 6.544 106.442 6.27911 107.482 6.27911C108.594 6.27911 109.484 6.54837 110.15 7.08253C110.816 7.61887 111.15 8.31502 111.15 9.17097H108.81C108.81 8.82947 108.703 8.54926 108.486 8.32596C108.27 8.10267 107.934 7.99321 107.474 7.99321C107.08 7.99321 106.776 8.08297 106.559 8.26467C106.343 8.44855 106.236 8.6806 106.236 8.95863C106.236 9.22132 106.358 9.43586 106.604 9.59786C106.851 9.76204 107.266 9.90215 107.848 10.0182C108.431 10.1364 108.921 10.2721 109.322 10.4188C110.557 10.8829 111.176 11.6863 111.176 12.829C111.176 13.6456 110.833 14.3067 110.148 14.8124C109.463 15.3181 108.574 15.5699 107.491 15.5699C106.756 15.5699 106.103 15.4363 105.534 15.1692C104.964 14.9 104.519 14.5344 104.193 14.0681C103.87 13.6018 103.709 13.0983 103.709 12.5554H105.926C105.947 12.9823 106.103 13.3063 106.388 13.5361C106.675 13.7616 107.06 13.8755 107.538 13.8755C107.985 13.8755 108.326 13.7879 108.555 13.6149C108.784 13.4398 108.9 13.21 108.9 12.9276H108.902ZM126.222 11.3908C126.13 12.6889 125.663 13.7069 124.818 14.4534C123.974 15.1977 122.861 15.5699 121.479 15.5699C119.968 15.5699 118.779 15.0488 117.91 14.0068C117.045 12.967 116.61 11.5374 116.61 9.72045V8.98271C116.61 7.82465 116.809 6.80231 117.21 5.91571C117.608 5.03348 118.18 4.35703 118.921 3.88418C119.664 3.41351 120.527 3.17489 121.507 3.17489C122.869 3.17489 123.965 3.54705 124.796 4.29136C125.627 5.03786 126.109 6.08208 126.235 7.4306H123.805C123.747 6.65126 123.535 6.08427 123.169 5.73401C122.807 5.38375 122.25 5.20861 121.505 5.20861C120.696 5.20861 120.09 5.50415 119.689 6.0996C119.285 6.69286 119.081 7.61449 119.071 8.8623V9.77299C119.071 11.0755 119.261 12.0278 119.649 12.6298C120.036 13.2318 120.644 13.5339 121.475 13.5339C122.225 13.5339 122.786 13.3588 123.156 13.0107C123.524 12.6605 123.736 12.1198 123.792 11.3886H126.218L126.222 11.3908ZM132.742 15.4013C132.635 15.1868 132.558 14.9197 132.507 14.6023C131.939 15.2502 131.203 15.572 130.295 15.572C129.438 15.572 128.725 15.3181 128.162 14.808C127.599 14.3002 127.317 13.6565 127.317 12.8838C127.317 11.9337 127.661 11.2047 128.351 10.6968C129.038 10.1889 130.034 9.93061 131.333 9.92623H132.411V9.41835C132.411 9.00679 132.306 8.67842 132.098 8.43104C131.89 8.18586 131.563 8.06108 131.113 8.06108C130.721 8.06108 130.411 8.1574 130.188 8.34566C129.963 8.53393 129.85 8.79663 129.85 9.12938H127.511C127.511 8.61274 127.666 8.13113 127.978 7.6933C128.293 7.25328 128.736 6.90739 129.308 6.65564C129.88 6.40389 130.522 6.27911 131.235 6.27911C132.316 6.27911 133.173 6.55713 133.807 7.11098C134.443 7.66703 134.759 8.44418 134.759 9.45119V13.3325C134.766 14.1797 134.882 14.8255 135.108 15.2612V15.4013H132.742ZM130.807 13.7397C131.151 13.7397 131.471 13.6609 131.764 13.5055C132.055 13.3479 132.269 13.1355 132.411 12.8728V11.3339H131.537C130.366 11.3339 129.74 11.7454 129.665 12.5751L129.657 12.7152C129.657 13.0129 129.76 13.2581 129.963 13.453C130.169 13.6456 130.449 13.7419 130.807 13.7419V13.7397ZM138.71 6.44767L138.785 7.48314C139.41 6.67972 140.25 6.27911 141.303 6.27911C142.232 6.27911 142.924 6.55932 143.376 7.11536C143.83 7.67141 144.061 8.50547 144.072 9.61318V15.4013H141.731V9.66134C141.731 9.15565 141.624 8.78568 141.408 8.55582C141.192 8.32815 140.834 8.21213 140.331 8.21213C139.674 8.21213 139.179 8.49891 138.849 9.07465V15.4013H136.509V6.44767H138.712H138.71ZM149.123 12.4788L150.748 6.44767H153.193L150.239 15.4013H148.003L145.048 6.44767H147.493L149.121 12.4788H149.123ZM159.165 15.4013C159.058 15.1868 158.981 14.9197 158.93 14.6023C158.362 15.2502 157.626 15.572 156.718 15.572C155.861 15.572 155.148 15.3181 154.585 14.808C154.022 14.3002 153.739 13.6565 153.739 12.8838C153.739 11.9337 154.084 11.2047 154.774 10.6968C155.461 10.1889 156.457 9.93061 157.756 9.92623H158.836V9.41835C158.836 9.00679 158.731 8.67842 158.523 8.43104C158.315 8.18586 157.988 8.06108 157.538 8.06108C157.146 8.06108 156.836 8.1574 156.613 8.34566C156.388 8.53393 156.277 8.79663 156.277 9.12938H153.939C153.939 8.61274 154.093 8.13113 154.405 7.6933C154.72 7.25328 155.163 6.90739 155.735 6.65564C156.307 6.40389 156.949 6.27911 157.662 6.27911C158.744 6.27911 159.6 6.55713 160.232 7.11098C160.868 7.66703 161.185 8.44418 161.185 9.45119V13.3325C161.191 14.1797 161.307 14.8255 161.534 15.2612V15.4013H159.165ZM157.23 13.7397C157.574 13.7397 157.893 13.6609 158.187 13.5055C158.478 13.3479 158.692 13.1355 158.833 12.8728V11.3339H157.96C156.789 11.3339 156.163 11.7454 156.088 12.5751L156.08 12.7152C156.08 13.0129 156.183 13.2581 156.386 13.453C156.592 13.6456 156.872 13.7419 157.23 13.7419V13.7397ZM167.724 12.9297C167.724 12.6386 167.58 12.4065 167.298 12.2402C167.013 12.0694 166.559 11.9205 165.932 11.787C163.848 11.3404 162.805 10.4341 162.805 9.07246C162.805 8.27561 163.129 7.61011 163.773 7.08034C164.42 6.54618 165.264 6.2813 166.306 6.2813C167.418 6.2813 168.308 6.55056 168.974 7.08472C169.64 7.62106 169.974 8.31721 169.974 9.17316H167.634C167.634 8.83166 167.527 8.55145 167.311 8.32815C167.094 8.10486 166.758 7.9954 166.298 7.9954C165.904 7.9954 165.6 8.08516 165.384 8.26686C165.167 8.45074 165.06 8.68279 165.06 8.96082C165.06 9.22351 165.182 9.43805 165.428 9.60005C165.675 9.76423 166.09 9.90434 166.673 10.0204C167.255 10.1386 167.745 10.2743 168.146 10.421C169.381 10.8851 170 11.6885 170 12.8312C170 13.6478 169.657 14.3089 168.972 14.8146C168.287 15.3203 167.398 15.572 166.315 15.572C165.581 15.572 164.927 15.4385 164.358 15.1714C163.788 14.9022 163.343 14.5366 163.017 14.0703C162.694 13.604 162.534 13.1005 162.534 12.5576H164.75C164.771 12.9845 164.927 13.3085 165.21 13.5383C165.497 13.7638 165.882 13.8776 166.36 13.8776C166.807 13.8776 167.148 13.7901 167.377 13.6171C167.606 13.442 167.722 13.2121 167.722 12.9297H167.724Z"
        fill="#333333" />
    <path
        d="M34.5781 25.2138C34.5781 26.0341 34.3942 26.6868 34.0263 27.1718C33.6617 27.6568 33.1588 27.8994 32.5175 27.8994C31.899 27.8994 31.4173 27.6764 31.0722 27.2304L31.0136 27.8017H29.9394V20.3017H31.1259V23.0263C31.4677 22.6227 31.9283 22.4208 32.5078 22.4208C33.1523 22.4208 33.6585 22.6601 34.0263 23.1386C34.3942 23.6171 34.5781 24.2861 34.5781 25.1454V25.2138ZM33.3915 25.1113C33.3915 24.5384 33.2906 24.1087 33.0888 23.8222C32.887 23.5357 32.594 23.3925 32.2099 23.3925C31.6956 23.3925 31.3343 23.6171 31.1259 24.0663V26.2441C31.3375 26.7031 31.7021 26.9326 32.2197 26.9326C32.5908 26.9326 32.8772 26.7942 33.079 26.5175C33.2809 26.2408 33.385 25.8225 33.3915 25.2626V25.1113Z"
        fill="#333333" />
    <path
        d="M37.5662 26.1025L38.6404 22.5185H39.905L37.8054 28.6025C37.4831 29.4911 36.9363 29.9355 36.1648 29.9355C35.9923 29.9355 35.8018 29.9062 35.5935 29.8476V28.9296L35.8181 28.9443C36.1176 28.9443 36.3422 28.8889 36.4919 28.7783C36.6449 28.6708 36.7654 28.4885 36.8533 28.2314L37.0242 27.7773L35.1687 22.5185H36.448L37.5662 26.1025Z"
        fill="#333333" />
    <path
        d="M47.5755 26.1464H44.8216L44.2455 27.8017H42.9613L45.6468 20.6923H46.7552L49.4456 27.8017H48.1566L47.5755 26.1464ZM45.1683 25.1503H47.2289L46.1986 22.2011L45.1683 25.1503Z"
        fill="#333333" />
    <path
        d="M53.4835 27.2841C53.1352 27.6943 52.6404 27.8994 51.9992 27.8994C51.4262 27.8994 50.9917 27.7317 50.6955 27.3964C50.4025 27.0611 50.256 26.5761 50.256 25.9413V22.5185H51.4425V25.9267C51.4425 26.5973 51.7208 26.9326 52.2775 26.9326C52.8537 26.9326 53.2427 26.7259 53.4445 26.3124V22.5185H54.631V27.8017H53.5128L53.4835 27.2841Z"
        fill="#333333" />
    <path
        d="M58.8056 23.6025C58.6494 23.5764 58.4882 23.5634 58.3222 23.5634C57.7786 23.5634 57.4124 23.7717 57.2236 24.1884V27.8017H56.0371V22.5185H57.1699L57.1992 23.1093C57.4856 22.6503 57.8828 22.4208 58.3906 22.4208C58.5598 22.4208 58.6998 22.4436 58.8105 22.4892L58.8056 23.6025Z"
        fill="#333333" />
    <path
        d="M61.0173 27.8017H59.8308V22.5185H61.0173V27.8017ZM59.7576 21.1464C59.7576 20.9641 59.8145 20.8128 59.9285 20.6923C60.0456 20.5719 60.2117 20.5117 60.4265 20.5117C60.6414 20.5117 60.8074 20.5719 60.9246 20.6923C61.0417 20.8128 61.1003 20.9641 61.1003 21.1464C61.1003 21.3255 61.0417 21.4752 60.9246 21.5956C60.8074 21.7128 60.6414 21.7714 60.4265 21.7714C60.2117 21.7714 60.0456 21.7128 59.9285 21.5956C59.8145 21.4752 59.7576 21.3255 59.7576 21.1464Z"
        fill="#333333" />
    <path
        d="M62.3062 25.121C62.3062 24.3007 62.4983 23.6464 62.8824 23.1581C63.2697 22.6666 63.7824 22.4208 64.4205 22.4208C65.0227 22.4208 65.4963 22.6308 65.8414 23.0507L65.8951 22.5185H66.9644V27.6406C66.9644 28.3339 66.7479 28.8808 66.315 29.2812C65.8853 29.6816 65.3042 29.8818 64.5718 29.8818C64.1844 29.8818 63.8052 29.8004 63.4341 29.6376C63.0663 29.4781 62.7863 29.2682 62.5943 29.0078L63.1558 28.2949C63.5204 28.7278 63.9696 28.9443 64.5035 28.9443C64.8973 28.9443 65.2082 28.8369 65.4361 28.622C65.6639 28.4104 65.7779 28.0979 65.7779 27.6845V27.3281C65.4361 27.7089 64.9803 27.8994 64.4107 27.8994C63.7922 27.8994 63.286 27.6536 62.8921 27.162C62.5015 26.6705 62.3062 25.9902 62.3062 25.121ZM63.4878 25.2236C63.4878 25.7542 63.5953 26.1725 63.8101 26.4785C64.0282 26.7812 64.3293 26.9326 64.7134 26.9326C65.1919 26.9326 65.5468 26.7275 65.7779 26.3173V23.9931C65.5533 23.5927 65.2017 23.3925 64.7232 23.3925C64.3326 23.3925 64.0282 23.5471 63.8101 23.8564C63.5953 24.1656 63.4878 24.6214 63.4878 25.2236Z"
        fill="#333333" />
    <path
        d="M69.5033 22.5185L69.5374 23.0703C69.9085 22.6373 70.4164 22.4208 71.0609 22.4208C71.7673 22.4208 72.2507 22.691 72.5111 23.2314C72.8952 22.691 73.4356 22.4208 74.1322 22.4208C74.7149 22.4208 75.1478 22.582 75.431 22.9042C75.7175 23.2265 75.8639 23.7018 75.8705 24.33V27.8017H74.6839V24.3642C74.6839 24.0289 74.6107 23.7831 74.4642 23.6269C74.3177 23.4706 74.0752 23.3925 73.7367 23.3925C73.4665 23.3925 73.2451 23.4658 73.0726 23.6122C72.9033 23.7555 72.7845 23.9443 72.7162 24.1786L72.721 27.8017H71.5345V24.3251C71.5182 23.7034 71.2009 23.3925 70.5824 23.3925C70.1071 23.3925 69.7702 23.5862 69.5716 23.9736V27.8017H68.3851V22.5185H69.5033Z"
        fill="#333333" />
    <path
        d="M80.4455 27.8017C80.3934 27.7008 80.3478 27.5364 80.3087 27.3085C79.9311 27.7024 79.4689 27.8994 78.922 27.8994C78.3914 27.8994 77.9585 27.748 77.6232 27.4453C77.2879 27.1425 77.1203 26.7682 77.1203 26.3222C77.1203 25.7591 77.3286 25.3277 77.7453 25.0283C78.1652 24.7255 78.7641 24.5742 79.5421 24.5742H80.2697V24.2275C80.2697 23.954 80.1932 23.7359 80.0402 23.5732C79.8872 23.4072 79.6544 23.3242 79.3419 23.3242C79.0718 23.3242 78.8504 23.3925 78.6779 23.5292C78.5053 23.6627 78.4191 23.8336 78.4191 24.0419H77.2326C77.2326 23.7522 77.3286 23.482 77.5206 23.2314C77.7127 22.9775 77.9731 22.7789 78.3019 22.6357C78.6339 22.4925 79.0034 22.4208 79.4103 22.4208C80.0288 22.4208 80.5219 22.5771 80.8898 22.8896C81.2576 23.1988 81.4464 23.635 81.4562 24.1982V26.581C81.4562 27.0563 81.5229 27.4355 81.6564 27.7187V27.8017H80.4455ZM79.1417 26.9472C79.3761 26.9472 79.5958 26.8902 79.8009 26.7763C80.0093 26.6624 80.1655 26.5094 80.2697 26.3173V25.3212H79.63C79.1906 25.3212 78.8602 25.3977 78.6388 25.5507C78.4175 25.7037 78.3068 25.9202 78.3068 26.2001C78.3068 26.428 78.3817 26.6103 78.5314 26.747C78.6844 26.8805 78.8878 26.9472 79.1417 26.9472Z"
        fill="#333333" />
    <path fill-rule="evenodd" clip-rule="evenodd"
        d="M5.86889 1.10084C5.97757 0.465032 6.53011 0 7.1769 0C7.9988 0 8.62301 0.737548 8.4849 1.54551L8.40493 2.01339L13.1313 2.01339L13.0513 1.54551C12.9132 0.737549 13.5374 0 14.3593 0C15.0061 0 15.5586 0.465034 15.6673 1.10084L20.2625 27.9842C20.4006 28.7922 19.7764 29.5297 18.9545 29.5297C18.3077 29.5297 17.7552 29.0647 17.6465 28.4289L17.2037 25.8385H12.1141V27.1808C12.1141 27.9221 11.5115 28.5231 10.7681 28.5231C10.0247 28.5231 9.42209 27.9221 9.42209 27.1808V25.8385H4.33247L3.8897 28.4289C3.78102 29.0647 3.22847 29.5297 2.58169 29.5297C1.75978 29.5297 1.13557 28.7922 1.27368 27.9842L5.86889 1.10084Z"
        fill="#0BA3E3" />
    <path
        d="M0 6.04017C0 4.92821 0.903946 4.02678 2.01902 4.02678H19.5172C20.6323 4.02678 21.5362 4.92821 21.5362 6.04017V21.8117C21.5362 22.9237 20.6323 23.8251 19.5172 23.8251H2.01902C0.903946 23.8251 0 22.9237 0 21.8117V6.04017Z"
        fill="#30C2FF" />
</svg>